<svg id="visual" viewBox="0 0 900 600" width="900" height="600" xmlns="http://www.w3.org/2000/svg" xmlns:xlink="http://www.w3.org/1999/xlink" version="1.1"><path d="M0 365L21.5 376.2C43 387.3 86 409.7 128.8 407.3C171.7 405 214.3 378 257.2 378.8C300 379.7 343 408.3 385.8 422.3C428.7 436.3 471.3 435.7 514.2 427.5C557 419.3 600 403.7 642.8 398.5C685.7 393.3 728.3 398.7 771.2 403.7C814 408.7 857 413.3 878.5 415.7L900 418L900 601L878.5 601C857 601 814 601 771.2 601C728.3 601 685.7 601 642.8 601C600 601 557 601 514.2 601C471.3 601 428.7 601 385.8 601C343 601 300 601 257.2 601C214.3 601 171.7 601 128.8 601C86 601 43 601 21.5 601L0 601Z" fill="#d2b4e4"></path><path d="M0 478L21.5 472.8C43 467.7 86 457.3 128.8 448C171.7 438.7 214.3 430.3 257.2 426.8C300 423.3 343 424.7 385.8 432.7C428.7 440.7 471.3 455.3 514.2 459.7C557 464 600 458 642.8 458C685.7 458 728.3 464 771.2 459.8C814 455.7 857 441.3 878.5 434.2L900 427L900 601L878.5 601C857 601 814 601 771.2 601C728.3 601 685.7 601 642.8 601C600 601 557 601 514.2 601C471.3 601 428.7 601 385.8 601C343 601 300 601 257.2 601C214.3 601 171.7 601 128.8 601C86 601 43 601 21.5 601L0 601Z" fill="#bc95d3"></path><path d="M0 496L21.5 490.8C43 485.7 86 475.3 128.8 474.2C171.7 473 214.3 481 257.2 482.3C300 483.7 343 478.3 385.8 479.7C428.7 481 471.3 489 514.2 494.2C557 499.3 600 501.7 642.8 496.5C685.7 491.3 728.3 478.7 771.2 478.5C814 478.3 857 490.7 878.5 496.8L900 503L900 601L878.5 601C857 601 814 601 771.2 601C728.3 601 685.7 601 642.8 601C600 601 557 601 514.2 601C471.3 601 428.7 601 385.8 601C343 601 300 601 257.2 601C214.3 601 171.7 601 128.8 601C86 601 43 601 21.5 601L0 601Z" fill="#a677c2"></path><path d="M0 526L21.5 520.7C43 515.3 86 504.7 128.8 501.2C171.7 497.7 214.3 501.3 257.2 509.2C300 517 343 529 385.8 533.8C428.7 538.7 471.3 536.3 514.2 528.5C557 520.7 600 507.3 642.8 499.2C685.7 491 728.3 488 771.2 486.5C814 485 857 485 878.5 485L900 485L900 601L878.5 601C857 601 814 601 771.2 601C728.3 601 685.7 601 642.8 601C600 601 557 601 514.2 601C471.3 601 428.7 601 385.8 601C343 601 300 601 257.2 601C214.3 601 171.7 601 128.8 601C86 601 43 601 21.5 601L0 601Z" fill="#9058b1"></path><path d="M0 559L21.5 559.2C43 559.3 86 559.7 128.8 559.5C171.7 559.3 214.3 558.7 257.2 552.7C300 546.7 343 535.3 385.8 537.8C428.7 540.3 471.3 556.7 514.2 558.7C557 560.7 600 548.3 642.8 544C685.7 539.7 728.3 543.3 771.2 547.3C814 551.3 857 555.7 878.5 557.8L900 560L900 601L878.5 601C857 601 814 601 771.2 601C728.3 601 685.7 601 642.8 601C600 601 557 601 514.2 601C471.3 601 428.7 601 385.8 601C343 601 300 601 257.2 601C214.3 601 171.7 601 128.8 601C86 601 43 601 21.5 601L0 601Z" fill="#7a399f"></path></svg>